<svg xmlns="http://www.w3.org/2000/svg" viewBox="0 0 100 100" width="100" height="100">
  <!-- Folder back part -->
  <path fill="#e6b800" d="M10 25 L10 85 L90 85 L90 25 Z"/>
  
  <!-- Folder tab -->
  <path fill="#f0c814" d="M10 25 L10 20 L35 20 L40 25 Z"/>
  
  <!-- Folder front part -->
  <path fill="#ffd700" d="M15 30 L15 80 L85 80 L85 30 Z"/>
  
  <!-- Document inside folder -->
  <rect x="25" y="35" width="35" height="45" fill="#f5f5f5" stroke="#d0d0d0" stroke-width="0.5"/>
  
  <!-- Document corner fold -->
  <path fill="#e0e0e0" d="M55 35 L55 40 L60 40 Z"/>
  
  <!-- Document lines -->
  <line x1="30" y1="45" x2="50" y2="45" stroke="#c0c0c0" stroke-width="1"/>
  <line x1="30" y1="50" x2="50" y2="50" stroke="#c0c0c0" stroke-width="1"/>
  <line x1="30" y1="55" x2="45" y2="55" stroke="#c0c0c0" stroke-width="1"/>
  
  <!-- Folder shadows and highlights -->
  <path fill="#cc9900" d="M10 25 L10 27 L90 27 L90 25 Z"/>
  <path fill="#ffee33" d="M15 30 L15 32 L85 32 L85 30 Z"/>
  
  <!-- Folder edge highlight -->
  <path fill="#ffee33" d="M10 20 L10 22 L35 22 L40 27 L40 25 L35 20 Z"/>
</svg>
