<svg version="1.1" id="Layer_1" xmlns="http://www.w3.org/2000/svg" xmlns:xlink="http://www.w3.org/1999/xlink" x="0px" y="0px"
	 width="100%" viewBox="0 0 1024 1024" enable-background="new 0 0 1024 1024" xml:space="preserve">
<path fill="#FFBE2F" opacity="1.000000" stroke="none" 
	d="
M835.273376,754.455505 
	C835.257019,755.047791 835.240601,755.640015 834.867065,756.616577 
	C834.004517,756.948181 833.499268,756.895508 832.674316,756.578979 
	C830.368286,756.211121 828.381897,756.016235 826.395508,756.016113 
	C637.424377,756.004395 448.453217,756.007507 259.482056,756.009705 
	C257.533752,756.009705 255.585419,756.009705 252.998001,756.009705 
	C252.998001,746.454773 253.065475,737.507690 252.942886,728.563232 
	C252.917419,726.704773 252.187668,724.855957 251.892670,723.006226 
	C252.002838,723.009705 251.994553,723.229919 251.742676,722.881042 
	C241.052780,722.370789 230.614777,722.209412 220.112183,721.779541 
	C220.094543,721.333130 220.141479,721.155151 220.568893,720.870972 
	C221.298370,719.733704 221.950150,718.703308 221.952225,717.671570 
	C222.007751,690.076477 222.023407,662.481262 221.912537,634.886597 
	C221.907318,633.582886 220.677963,632.284119 219.718826,630.690674 
	C212.453842,630.264709 205.489182,630.083984 198.523422,630.011353 
	C192.003769,629.943420 191.996033,629.993896 191.995117,623.580750 
	C191.991379,597.299744 192.007675,571.018799 191.965332,544.737854 
	C191.961578,542.410950 192.852005,539.409302 188.493073,539.042114 
	C185.554886,539.023499 183.078323,538.940125 180.607513,539.024841 
	C174.080673,539.248535 167.556305,539.545166 160.686523,539.885803 
	C159.873016,539.963806 159.403946,539.968811 158.934875,539.973755 
	C158.934875,539.973755 159.026535,539.970032 158.917358,539.743164 
	C158.900452,539.341614 158.992706,539.167053 159.367950,538.687866 
	C159.765945,537.566589 159.980911,536.749878 159.981491,535.933044 
	C160.001740,506.967255 160.018509,478.001465 159.952271,449.035828 
	C159.949188,447.694183 159.177979,446.354279 158.879028,445.018433 
	C158.993515,445.023285 158.977783,445.251953 158.735504,444.897491 
	C149.714767,444.366974 140.936707,444.141785 132.157364,444.065826 
	C130.780380,444.053894 129.397507,444.719421 128.091736,445.099060 
	C128.166107,445.126465 128.091064,445.266052 128.091064,445.266052 
	C127.897385,445.187042 127.703705,445.108063 127.267906,444.440002 
	C127.021896,424.205811 127.018013,404.560699 127.014130,384.915558 
	C127.014130,384.915558 127.009026,385.007324 127.228348,385.083038 
	C127.629601,385.186615 127.811546,385.214447 128.018402,385.694519 
	C128.043320,404.394867 128.043320,422.643005 128.043320,440.891144 
	C128.352264,440.890930 128.661194,440.890686 128.970139,440.890472 
	C128.970139,424.760712 128.970215,408.630951 128.970078,392.501190 
	C128.970016,386.018799 128.969788,386.008789 135.430862,386.008362 
	C219.590683,386.002899 303.750519,385.998688 387.910339,385.997833 
	C493.735077,385.996735 599.559814,385.998871 705.384521,386.000305 
	C711.991943,386.000397 711.995422,386.003235 711.996582,392.836212 
	C711.999207,408.501587 711.964905,424.167175 712.046448,439.832123 
	C712.055359,441.539917 712.724121,443.244324 713.351257,445.268005 
	C721.583435,445.720886 729.559753,446.129822 737.515686,445.882904 
	C741.901001,445.746735 743.142578,446.976593 743.108154,451.437408 
	C742.894775,479.066895 742.978638,506.698944 743.042847,534.329895 
	C743.047241,536.214478 743.695129,538.097595 744.326294,540.285278 
	C752.389587,540.723083 760.181580,541.162354 767.946838,540.876831 
	C772.633972,540.704468 774.163025,541.913818 774.117737,546.837097 
	C773.873779,573.395508 773.973206,599.957397 774.058044,626.517761 
	C774.063782,628.315491 774.921204,630.110535 775.228760,631.914551 
	C775.074951,631.922241 775.091187,631.614624 775.300842,631.992249 
	C783.609009,632.572632 791.712463,633.030884 799.803894,632.872742 
	C803.988342,632.790955 805.110291,634.085876 805.087463,638.208496 
	C804.931030,666.466309 805.023804,694.725464 805.220215,723.335083 
	C806.926514,724.123718 808.432129,724.849670 809.974854,724.939758 
	C813.285645,725.132935 816.617432,724.926147 819.937073,725.015442 
	C824.378174,725.134827 830.415955,723.728821 832.800110,726.039795 
	C835.133118,728.301208 833.727173,734.406555 833.987366,738.823242 
	C834.266296,743.558044 834.574463,748.291138 834.979736,753.380005 
	C835.151001,753.975281 835.212219,754.215393 835.273376,754.455505 
z"/>
<path fill="#040405" opacity="1.000000" stroke="none" 
	d="
M835.708984,754.354004 
	C835.212219,754.215393 835.151001,753.975281 835.054993,752.912903 
	C835.020264,742.502747 835.020264,732.914856 835.020264,722.976868 
	C824.955078,722.976868 815.493530,722.976868 806.015991,722.509888 
	C806.000122,692.033569 806.000122,662.024292 806.000122,631.614624 
	C795.302490,631.614624 785.196838,631.614624 775.091187,631.614624 
	C775.091187,631.614624 775.074951,631.922241 775.200317,631.687927 
	C775.325623,631.453613 775.336182,630.998840 775.646851,630.996582 
	C779.983276,628.021606 784.635498,629.130676 789.086975,629.016724 
	C792.406433,628.931702 795.753357,628.751953 799.045593,629.063171 
	C803.056641,629.442383 804.105713,627.898071 804.080444,623.999817 
	C803.921021,599.420410 804.011841,574.839539 803.968750,550.259155 
	C803.966248,548.813293 803.921509,547.114807 803.202393,545.969788 
	C800.960571,542.400024 802.870972,541.608398 805.984253,541.710083 
	C806.066467,544.765808 806.095093,547.423401 806.095398,550.080994 
	C806.098328,575.494934 806.078857,600.908936 806.133850,626.322754 
	C806.137695,628.088684 804.833130,631.317993 809.474731,630.090088 
	C818.194946,630.168762 826.452942,630.168762 834.761841,630.168762 
	C834.761841,518.047607 834.761841,406.461639 834.761841,294.690033 
	C711.735901,294.690033 588.948181,294.690033 466.171265,294.489868 
	C466.182098,294.289734 465.921906,293.984772 465.952820,293.517609 
	C465.918243,283.060669 465.852753,273.070923 465.853271,262.800537 
	C465.961639,262.332520 466.003998,262.145081 466.034302,261.976501 
	C466.022278,261.995361 465.989075,262.025299 465.989075,262.025269 
	C517.795288,262.061707 569.601501,262.117706 621.407715,262.129791 
	C691.872620,262.146271 762.337524,262.129150 832.802429,262.126404 
	C833.624695,262.126373 834.446960,262.126404 835.706970,262.126404 
	C835.706970,272.807343 835.706970,283.382996 835.706970,294.352539 
	C846.185486,294.352539 856.243591,294.352539 866.654602,294.352539 
	C866.654602,447.775146 866.654602,600.901855 866.654602,754.252563 
	C856.403625,754.252563 846.274170,754.252563 835.708984,754.354004 
z"/>
<path fill="#030304" opacity="1.000000" stroke="none" 
	d="
M127.993492,385.242310 
	C127.811546,385.214447 127.629601,385.186615 127.182388,385.082214 
	C126.917122,374.531586 126.917122,364.057495 126.917122,353.070465 
	C147.570709,353.070465 167.946655,353.070465 188.518082,353.070465 
	C188.518082,312.285095 188.518082,272.013000 188.518082,231.307098 
	C198.590424,231.307098 208.480362,231.307098 218.841522,231.307098 
	C218.841522,220.338043 218.841522,209.784286 218.841522,198.981354 
	C291.202148,198.981354 363.088715,198.981354 435.644012,198.981354 
	C435.644012,209.042267 435.644012,219.109146 435.097473,229.634430 
	C363.120270,230.092850 291.689575,230.092850 220.232239,230.092850 
	C220.232239,271.560913 220.232239,312.300873 220.232239,353.076263 
	C220.976212,353.134460 221.457886,353.205170 221.939560,353.205170 
	C385.572327,353.197998 549.205139,353.186005 712.851135,353.118683 
	C712.864380,353.063263 712.759583,353.018402 712.840210,353.483337 
	C712.961670,364.319275 713.002502,374.690277 712.573303,385.024200 
	C520.388733,384.990570 328.674225,384.992859 136.959732,385.007507 
	C133.970993,385.007751 130.982239,385.160675 127.993492,385.242310 
z"/>
<path fill="#020204" opacity="1.000000" stroke="none" 
	d="
M832.993958,756.842896 
	C833.499268,756.895508 834.004517,756.948181 834.883850,756.913330 
	C835.505432,762.892761 835.814758,768.958130 835.979065,775.027283 
	C836.091125,779.164612 836.000488,783.307373 836.000488,787.722290 
	C630.668030,787.722290 425.573456,787.722290 220.008087,787.722290 
	C220.008087,766.425415 220.008087,745.162903 219.992889,723.450317 
	C219.977692,723.000305 219.938919,723.044434 220.406403,723.122192 
	C231.247452,723.209961 241.621002,723.219910 251.994553,723.229858 
	C251.994553,723.229919 252.002838,723.009705 251.971130,723.473816 
	C251.939438,734.866089 251.939438,745.794189 251.939438,756.997803 
	C254.178604,756.997803 255.815887,756.997742 257.453186,756.997803 
	C431.150970,756.999023 604.848755,757.004944 778.546509,756.994568 
	C796.695679,756.993469 814.844788,756.895813 832.993958,756.842896 
z"/>
<path fill="#020304" opacity="1.000000" stroke="none" 
	d="
M158.965576,540.443298 
	C159.403946,539.968811 159.873016,539.963806 161.148132,539.964355 
	C170.959991,539.919495 179.965820,539.869080 189.355469,540.047546 
	C189.824112,545.419922 189.963181,550.563293 189.984482,555.707153 
	C190.088364,580.800781 190.160782,605.894653 190.440445,631.350342 
	C200.420395,631.816467 210.204239,631.920593 219.998428,632.491821 
	C220.068649,662.298279 220.128540,691.637695 220.188416,720.977173 
	C220.141479,721.155151 220.094543,721.333130 220.036011,722.024536 
	C219.995911,722.706787 219.967407,722.875610 219.938919,723.044434 
	C219.938919,723.044434 219.977692,723.000305 219.997894,722.979004 
	C209.884995,722.957764 199.751877,722.957764 189.117218,722.957764 
	C189.117218,692.593140 189.117218,662.249084 189.117218,631.508911 
	C178.882248,631.508911 169.143082,631.508911 158.996262,631.508911 
	C158.996262,601.044495 158.996262,570.978638 158.965576,540.443298 
z"/>
<path fill="#030304" opacity="1.000000" stroke="none" 
	d="
M159.084961,538.992432 
	C158.992706,539.167053 158.900452,539.341614 158.925140,539.788330 
	C148.906128,540.060486 138.770172,540.060486 127.997086,540.060486 
	C127.997086,508.573425 127.997086,477.364380 128.044067,445.710693 
	C128.091064,445.266052 128.166107,445.126465 128.560394,445.132324 
	C138.962387,445.176147 148.970093,445.214050 158.977783,445.251953 
	C158.977783,445.251953 158.993515,445.023285 158.959961,445.484802 
	C158.979248,476.961700 159.032104,507.977051 159.084961,538.992432 
z"/>
<path fill="#060708" opacity="1.000000" stroke="none" 
	d="
M126.545944,384.952393 
	C127.018013,404.560699 127.021896,424.205811 126.987076,444.300110 
	C116.967377,444.749298 106.986389,444.749298 96.702042,444.749298 
	C96.702042,424.933136 96.702042,405.215424 96.702042,384.989258 
	C106.529762,384.989258 116.303764,384.989258 126.545944,384.952393 
z"/>
<path fill="#F1D937" opacity="1.000000" stroke="none" 
	d="
M712.837891,353.174103 
	C549.205139,353.186005 385.572327,353.197998 221.939560,353.205170 
	C221.457886,353.205170 220.976212,353.134460 220.232239,353.076263 
	C220.232239,312.300873 220.232239,271.560913 220.232239,230.092850 
	C291.689575,230.092850 363.120270,230.092850 434.968018,230.092407 
	C435.385132,230.091949 435.644897,230.393219 435.453156,230.817383 
	C435.117737,231.835892 434.974060,232.430252 434.639038,233.025558 
	C434.447662,233.026505 434.065338,233.045105 433.769592,232.741455 
	C431.665619,232.292160 429.857452,232.020996 428.049072,232.019485 
	C396.053192,231.992828 364.057281,231.998566 332.061371,231.998184 
	C296.732544,231.997772 261.403564,232.047806 226.075165,231.926605 
	C222.275421,231.913574 220.902817,232.792603 220.920670,236.900650 
	C221.079987,273.561951 221.084412,310.224518 220.917160,346.885742 
	C220.897385,351.224457 222.392029,352.562164 226.377182,352.010315 
	C227.358246,351.874420 228.374115,351.990143 229.373993,351.990143 
	C388.520325,351.991089 547.666687,351.987701 706.812988,352.041962 
	C708.821411,352.042664 710.829590,352.780396 712.837891,353.174103 
z"/>
<path fill="#020304" opacity="1.000000" stroke="none" 
	d="
M434.830383,233.024612 
	C434.974060,232.430252 435.117737,231.835892 435.465881,231.015869 
	C445.729095,230.790207 455.787811,230.790207 466.055359,230.790207 
	C466.055359,241.307098 466.055359,251.196396 466.022217,261.555481 
	C465.989075,262.025299 466.022278,261.995361 465.564514,262.022095 
	C455.105865,262.026062 445.104980,262.003265 435.052185,261.515442 
	C434.943665,251.708527 434.887024,242.366562 434.830383,233.024612 
z"/>
<path fill="#FEF13A" opacity="1.000000" stroke="none" 
	d="
M128.018402,385.694519 
	C130.982239,385.160675 133.970993,385.007751 136.959732,385.007507 
	C328.674225,384.992859 520.388733,384.990570 712.547485,384.997681 
	C712.991760,385.008240 712.948730,384.948059 712.978760,385.419128 
	C713.047852,405.550110 713.086914,425.209991 713.114990,444.889465 
	C713.104065,444.909027 713.086853,444.950287 713.086853,444.950287 
	C712.724121,443.244324 712.055359,441.539917 712.046448,439.832123 
	C711.964905,424.167175 711.999207,408.501587 711.996582,392.836212 
	C711.995422,386.003235 711.991943,386.000397 705.384521,386.000305 
	C599.559814,385.998871 493.735077,385.996735 387.910339,385.997833 
	C303.750519,385.998688 219.590683,386.002899 135.430862,386.008362 
	C128.969788,386.008789 128.970016,386.018799 128.970078,392.501190 
	C128.970215,408.630951 128.970139,424.760712 128.970139,440.890472 
	C128.661194,440.890686 128.352264,440.890930 128.043320,440.891144 
	C128.043320,422.643005 128.043320,404.394867 128.018402,385.694519 
z"/>
<path fill="#FFF23E" opacity="1.000000" stroke="none" 
	d="
M832.674316,756.578979 
	C814.844788,756.895813 796.695679,756.993469 778.546509,756.994568 
	C604.848755,757.004944 431.150970,756.999023 257.453186,756.997803 
	C255.815887,756.997742 254.178604,756.997803 251.939438,756.997803 
	C251.939438,745.794189 251.939438,734.866089 251.860962,723.470337 
	C252.187668,724.855957 252.917419,726.704773 252.942886,728.563232 
	C253.065475,737.507690 252.998001,746.454773 252.998001,756.009705 
	C255.585419,756.009705 257.533752,756.009705 259.482056,756.009705 
	C448.453217,756.007507 637.424377,756.004395 826.395508,756.016113 
	C828.381897,756.016235 830.368286,756.211121 832.674316,756.578979 
z"/>
<path fill="#FED735" opacity="1.000000" stroke="none" 
	d="
M190.244339,630.988403 
	C190.160782,605.894653 190.088364,580.800781 189.984482,555.707153 
	C189.963181,550.563293 189.824112,545.419922 189.355286,539.856323 
	C188.971237,539.436279 188.957306,539.054016 188.957306,539.054016 
	C192.852005,539.409302 191.961578,542.410950 191.965332,544.737854 
	C192.007675,571.018799 191.991379,597.299744 191.995117,623.580750 
	C191.996033,629.993896 192.003769,629.943420 198.523422,630.011353 
	C205.489182,630.083984 212.453842,630.264709 219.711761,630.697083 
	C220.004562,630.995850 220.003067,630.996826 219.534256,630.984009 
	C209.458405,630.976868 199.851379,630.982605 190.244339,630.988403 
z"/>
<path fill="#FED735" opacity="1.000000" stroke="none" 
	d="
M220.568893,720.870972 
	C220.128540,691.637695 220.068649,662.298279 220.021805,632.235107 
	C220.024246,631.339905 220.013657,631.168396 220.003067,630.996826 
	C220.003067,630.996826 220.004562,630.995850 220.011627,630.989502 
	C220.677963,632.284119 221.907318,633.582886 221.912537,634.886597 
	C222.023407,662.481262 222.007751,690.076477 221.952225,717.671570 
	C221.950150,718.703308 221.298370,719.733704 220.568893,720.870972 
z"/>
<path fill="#FFF23E" opacity="1.000000" stroke="none" 
	d="
M744.043701,539.981384 
	C743.695129,538.097595 743.047241,536.214478 743.042847,534.329895 
	C742.978638,506.698944 742.894775,479.066895 743.108154,451.437408 
	C743.142578,446.976593 741.901001,445.746735 737.515686,445.882904 
	C729.559753,446.129822 721.583435,445.720886 713.351257,445.268005 
	C713.086853,444.950287 713.104065,444.909027 713.575195,444.903687 
	C724.140686,444.907288 734.234924,444.916199 744.275146,445.397583 
	C744.176758,477.216888 744.132385,508.563721 744.074707,539.926880 
	C744.061401,539.943176 744.043701,539.981384 744.043701,539.981384 
z"/>
<path fill="#FFF23E" opacity="1.000000" stroke="none" 
	d="
M775.336182,630.998840 
	C775.336182,630.998840 775.325623,631.453613 775.354065,631.680176 
	C774.921204,630.110535 774.063782,628.315491 774.058044,626.517761 
	C773.973206,599.957397 773.873779,573.395508 774.117737,546.837097 
	C774.163025,541.913818 772.633972,540.704468 767.946838,540.876831 
	C760.181580,541.162354 752.389587,540.723083 744.326294,540.285278 
	C744.043701,539.981384 744.061401,539.943176 744.537476,539.938782 
	C755.033203,539.937012 765.052795,539.939575 775.077759,540.414551 
	C775.059021,563.301880 775.005981,585.716797 775.026978,608.131653 
	C775.034119,615.754089 775.227783,623.376465 775.336182,630.998840 
z"/>
<path fill="#FEF13A" opacity="1.000000" stroke="none" 
	d="
M775.300842,631.992249 
	C785.196838,631.614624 795.302490,631.614624 806.000122,631.614624 
	C806.000122,662.024292 806.000122,692.033569 805.767212,722.514404 
	C805.534302,722.986023 805.036377,722.984192 805.036377,722.984192 
	C805.023804,694.725464 804.931030,666.466309 805.087463,638.208496 
	C805.110291,634.085876 803.988342,632.790955 799.803894,632.872742 
	C791.712463,633.030884 783.609009,632.572632 775.300842,631.992249 
z"/>
<path fill="#FFF23E" opacity="1.000000" stroke="none" 
	d="
M159.367950,538.687866 
	C159.032104,507.977051 158.979248,476.961700 158.845459,445.479950 
	C159.177979,446.354279 159.949188,447.694183 159.952271,449.035828 
	C160.018509,478.001465 160.001740,506.967255 159.981491,535.933044 
	C159.980911,536.749878 159.765945,537.566589 159.367950,538.687866 
z"/>
<path fill="#F1D937" opacity="1.000000" stroke="none" 
	d="
M805.220215,723.335083 
	C805.036377,722.984192 805.534302,722.986023 805.783081,722.981445 
	C815.493530,722.976868 824.955078,722.976868 835.020264,722.976868 
	C835.020264,732.914856 835.020264,742.502747 834.945068,752.557861 
	C834.574463,748.291138 834.266296,743.558044 833.987366,738.823242 
	C833.727173,734.406555 835.133118,728.301208 832.800110,726.039795 
	C830.415955,723.728821 824.378174,725.134827 819.937073,725.015442 
	C816.617432,724.926147 813.285645,725.132935 809.974854,724.939758 
	C808.432129,724.849670 806.926514,724.123718 805.220215,723.335083 
z"/>
<path fill="#FFF23E" opacity="1.000000" stroke="none" 
	d="
M220.406403,723.122192 
	C219.967407,722.875610 219.995911,722.706787 220.100586,722.292969 
	C230.614777,722.209412 241.052780,722.370789 251.742676,722.880981 
	C241.621002,723.219910 231.247452,723.209961 220.406403,723.122192 
z"/>
<path fill="#FEF13A" opacity="1.000000" stroke="none" 
	d="
M158.735504,444.897491 
	C148.970093,445.214050 138.962387,445.176147 128.486023,445.104950 
	C129.397507,444.719421 130.780380,444.053894 132.157364,444.065826 
	C140.936707,444.141785 149.714767,444.366974 158.735504,444.897491 
z"/>
<path fill="#FEF13A" opacity="1.000000" stroke="none" 
	d="
M188.493073,539.042114 
	C188.957306,539.054016 188.971237,539.436279 188.971436,539.627502 
	C179.965820,539.869080 170.959991,539.919495 161.492569,539.891357 
	C167.556305,539.545166 174.080673,539.248535 180.607513,539.024841 
	C183.078323,538.940125 185.554886,539.023499 188.493073,539.042114 
z"/>
<path fill="#FFBE2F" opacity="1.000000" stroke="none" 
	d="
M435.104065,261.980469 
	C445.104980,262.003265 455.105865,262.026062 465.576569,262.003265 
	C466.003998,262.145081 465.961639,262.332520 465.596619,263.116577 
	C465.182617,270.772247 464.989990,277.832062 465.047119,284.889862 
	C465.071655,287.923645 465.614502,290.953278 465.921875,293.984772 
	C465.921906,293.984772 466.182098,294.289734 466.135681,294.797363 
	C466.060516,295.509949 466.031769,295.714844 466.284424,296.234375 
	C468.539612,296.698761 470.513367,296.979340 472.487213,296.979675 
	C592.985535,297.000549 713.483887,296.998444 833.986938,297.467224 
	C833.996094,360.865265 834.002930,423.794617 834.004150,486.723938 
	C834.005005,532.339355 833.933167,577.955017 834.098022,623.569824 
	C834.114136,628.034302 832.867249,629.350647 828.487671,629.109985 
	C822.014832,628.754395 815.507446,629.026367 808.845459,628.645081 
	C808.449402,626.301880 808.030334,624.345215 808.025574,622.387573 
	C807.977051,602.424866 808.053101,582.461670 807.966370,562.499207 
	C807.934021,555.055481 807.565613,547.613220 807.350403,540.170288 
	C799.812988,539.781860 792.278687,539.287842 784.736389,539.063293 
	C782.165588,538.986633 779.574585,539.587402 776.738403,539.929443 
	C776.313782,539.949341 776.143616,539.918457 775.981201,539.426147 
	C775.994080,509.363678 776.017090,479.762512 775.957275,450.161530 
	C775.953796,448.458069 775.274902,446.756012 774.650391,444.731628 
	C765.467651,444.409943 756.544800,444.409943 746.977966,444.409943 
	C746.977966,441.608826 746.977600,439.830688 746.978027,438.052551 
	C746.981689,422.060791 747.020630,406.068817 746.937927,390.077515 
	C746.929199,388.386627 746.206604,386.699402 745.856201,385.021423 
	C745.897217,385.032379 745.860291,385.108765 745.615967,384.776794 
	C735.122620,384.444824 724.873535,384.444824 713.999878,384.444824 
	C713.999878,374.934204 714.066223,366.488434 713.943787,358.045441 
	C713.919434,356.364380 713.173035,354.693817 712.759583,353.018402 
	C712.759583,353.018402 712.864380,353.063263 712.851135,353.118683 
	C710.829590,352.780396 708.821411,352.042664 706.812988,352.041962 
	C547.666687,351.987701 388.520325,351.991089 229.373993,351.990143 
	C228.374115,351.990143 227.358246,351.874420 226.377182,352.010315 
	C222.392029,352.562164 220.897385,351.224457 220.917160,346.885742 
	C221.084412,310.224518 221.079987,273.561951 220.920670,236.900650 
	C220.902817,232.792603 222.275421,231.913574 226.075165,231.926605 
	C261.403564,232.047806 296.732544,231.997772 332.061371,231.998184 
	C364.057281,231.998566 396.053192,231.992828 428.049072,232.019485 
	C429.857452,232.020996 431.665619,232.292160 433.746704,233.204834 
	C434.011414,241.775635 433.944275,249.580170 434.045441,257.382538 
	C434.065369,258.919495 434.734375,260.448029 435.104065,261.980469 
z"/>
<path fill="#020304" opacity="1.000000" stroke="none" 
	d="
M775.973389,539.887512 
	C776.143616,539.918457 776.313782,539.949341 777.202698,540.007812 
	C786.079041,540.042664 794.237366,540.000000 802.393555,540.113159 
	C803.573547,540.129578 804.743042,540.893799 805.917419,541.311951 
	C802.870972,541.608398 800.960571,542.400024 803.202393,545.969788 
	C803.921509,547.114807 803.966248,548.813293 803.968750,550.259155 
	C804.011841,574.839539 803.921021,599.420410 804.080444,623.999817 
	C804.105713,627.898071 803.056641,629.442383 799.045593,629.063171 
	C795.753357,628.751953 792.406433,628.931702 789.086975,629.016724 
	C784.635498,629.130676 779.983276,628.021606 775.646851,630.996582 
	C775.227783,623.376465 775.034119,615.754089 775.026978,608.131653 
	C775.005981,585.716797 775.059021,563.301880 775.044922,540.444214 
	C775.006653,540.001343 774.936401,540.055115 775.206665,540.081177 
	C775.642395,540.033997 775.807922,539.960754 775.973389,539.887512 
z"/>
<path fill="#FEF13A" opacity="1.000000" stroke="none" 
	d="
M809.014771,629.031189 
	C815.507446,629.026367 822.014832,628.754395 828.487671,629.109985 
	C832.867249,629.350647 834.114136,628.034302 834.098022,623.569824 
	C833.933167,577.955017 834.005005,532.339355 834.004150,486.723938 
	C834.002930,423.794617 833.996094,360.865265 833.707825,297.156311 
	C831.610168,296.250336 829.796326,296.014313 827.982422,296.013550 
	C779.818237,295.993439 731.654114,296.006958 683.489929,295.995361 
	C610.994324,295.977875 538.498657,295.945679 466.003021,295.919739 
	C466.031769,295.714844 466.060516,295.509949 466.124878,294.997528 
	C588.948181,294.690033 711.735901,294.690033 834.761841,294.690033 
	C834.761841,406.461639 834.761841,518.047607 834.761841,630.168762 
	C826.452942,630.168762 818.194946,630.168762 809.463318,629.844971 
	C808.989685,629.521179 809.014771,629.031189 809.014771,629.031189 
z"/>
<path fill="#EAC332" opacity="1.000000" stroke="none" 
	d="
M808.845459,628.645081 
	C809.014771,629.031189 808.989685,629.521179 809.001099,629.766235 
	C804.833130,631.317993 806.137695,628.088684 806.133850,626.322754 
	C806.078857,600.908936 806.098328,575.494934 806.095398,550.080994 
	C806.095093,547.423401 806.066467,544.765808 805.984253,541.710083 
	C804.743042,540.893799 803.573547,540.129578 802.393555,540.113159 
	C794.237366,540.000000 786.079041,540.042664 777.457153,539.957031 
	C779.574585,539.587402 782.165588,538.986633 784.736389,539.063293 
	C792.278687,539.287842 799.812988,539.781860 807.350403,540.170288 
	C807.565613,547.613220 807.934021,555.055481 807.966370,562.499207 
	C808.053101,582.461670 807.977051,602.424866 808.025574,622.387573 
	C808.030334,624.345215 808.449402,626.301880 808.845459,628.645081 
z"/>
<path fill="#FFF23E" opacity="1.000000" stroke="none" 
	d="
M465.952820,293.517609 
	C465.614502,290.953278 465.071655,287.923645 465.047119,284.889862 
	C464.989990,277.832062 465.182617,270.772247 465.530640,263.397186 
	C465.852753,273.070923 465.918243,283.060669 465.952820,293.517609 
z"/>
<path fill="#FFF23E" opacity="1.000000" stroke="none" 
	d="
M712.840210,353.483337 
	C713.173035,354.693817 713.919434,356.364380 713.943787,358.045441 
	C714.066223,366.488434 713.999878,374.934204 713.999878,384.444824 
	C724.873535,384.444824 735.122620,384.444824 745.158325,384.739044 
	C734.279602,385.004852 723.614136,384.976471 712.948730,384.948059 
	C712.948730,384.948059 712.991760,385.008240 713.017578,385.034729 
	C713.002502,374.690277 712.961670,364.319275 712.840210,353.483337 
z"/>
<path fill="#F3AE2D" opacity="1.000000" stroke="none" 
	d="
M219.534256,630.984009 
	C220.013657,631.168396 220.024246,631.339905 220.011459,631.768066 
	C210.204239,631.920593 200.420395,631.816467 190.440445,631.350342 
	C199.851379,630.982605 209.458405,630.976868 219.534256,630.984009 
z"/>
<path fill="#FFF23E" opacity="1.000000" stroke="none" 
	d="
M435.052185,261.515472 
	C434.734375,260.448029 434.065369,258.919495 434.045441,257.382538 
	C433.944275,249.580170 434.011414,241.775635 434.042450,233.508484 
	C434.065338,233.045105 434.447662,233.026505 434.639038,233.025558 
	C434.887024,242.366562 434.943665,251.708527 435.052185,261.515472 
z"/>
<path fill="#040405" opacity="1.000000" stroke="none" 
	d="
M712.978760,385.419128 
	C723.614136,384.976471 734.279602,385.004852 745.402649,385.071014 
	C745.860291,385.108765 745.897217,385.032379 745.921753,385.488647 
	C745.888611,405.638428 745.830933,425.331909 745.531860,445.019043 
	C744.968201,445.003571 744.647827,444.974365 744.329224,444.925110 
	C734.234924,444.916199 724.140686,444.907288 713.586182,444.884094 
	C713.086914,425.209991 713.047852,405.550110 712.978760,385.419128 
z"/>
<path fill="#020204" opacity="1.000000" stroke="none" 
	d="
M744.275146,445.397583 
	C744.647827,444.974365 744.968201,445.003571 745.643921,445.023499 
	C745.997375,445.034302 745.999817,445.258484 746.336304,445.491943 
	C756.035034,445.818054 765.397339,445.910706 774.866089,446.460968 
	C774.960571,477.964081 774.948486,509.009613 774.936401,540.055115 
	C774.936401,540.055115 775.006653,540.001343 775.039551,539.971741 
	C765.052795,539.939575 755.033203,539.937012 744.550781,539.922485 
	C744.132385,508.563721 744.176758,477.216888 744.275146,445.397583 
z"/>
<path fill="#F3AE2D" opacity="1.000000" stroke="none" 
	d="
M466.284424,296.234344 
	C538.498657,295.945679 610.994324,295.977875 683.489929,295.995361 
	C731.654114,296.006958 779.818237,295.993439 827.982422,296.013550 
	C829.796326,296.014313 831.610168,296.250336 833.703125,296.687592 
	C713.483887,296.998444 592.985535,297.000549 472.487213,296.979675 
	C470.513367,296.979340 468.539612,296.698761 466.284424,296.234344 
z"/>
<path fill="#FEF13A" opacity="1.000000" stroke="none" 
	d="
M775.206665,540.081177 
	C774.948486,509.009613 774.960571,477.964081 774.921875,446.247253 
	C774.871216,445.575928 774.870605,445.134155 774.881714,445.114471 
	C774.892761,445.094788 774.910339,445.053314 774.910339,445.053314 
	C775.274902,446.756012 775.953796,448.458069 775.957275,450.161530 
	C776.017090,479.762512 775.994080,509.363678 775.981201,539.426147 
	C775.807922,539.960754 775.642395,540.033997 775.206665,540.081177 
z"/>
<path fill="#FFF23E" opacity="1.000000" stroke="none" 
	d="
M745.885376,445.029846 
	C745.830933,425.331909 745.888611,405.638428 745.880737,385.477722 
	C746.206604,386.699402 746.929199,388.386627 746.937927,390.077515 
	C747.020630,406.068817 746.981689,422.060791 746.978027,438.052551 
	C746.977600,439.830688 746.977966,441.608826 746.977966,444.409943 
	C756.544800,444.409943 765.467651,444.409943 774.650391,444.731628 
	C774.910339,445.053314 774.892761,445.094788 774.421509,445.117065 
	C764.633484,445.179077 755.316650,445.218781 745.999817,445.258484 
	C745.999817,445.258484 745.997375,445.034302 745.885376,445.029846 
z"/>
<path fill="#040405" opacity="1.000000" stroke="none" 
	d="
M746.336304,445.491943 
	C755.316650,445.218781 764.633484,445.179077 774.410461,445.136780 
	C774.870605,445.134155 774.871216,445.575928 774.815430,445.789642 
	C765.397339,445.910706 756.035034,445.818054 746.336304,445.491943 
z"/>
</svg>